<mxfile host="app.diagrams.net" modified="2024-03-03T05:43:55.943Z" agent="Mozilla/5.0 (Windows NT 10.0; Win64; x64) AppleWebKit/537.36 (KHTML, like Gecko) Chrome/122.0.0.0 Safari/537.36" etag="q1PdZVMuGs-wNad8s68W" version="24.0.1" type="device">
  <diagram name="Page-1" id="hmyWf2IH6P5kuFQp-NEr">
    <mxGraphModel dx="1595" dy="605" grid="1" gridSize="10" guides="1" tooltips="1" connect="1" arrows="1" fold="1" page="1" pageScale="1" pageWidth="850" pageHeight="1100" math="0" shadow="0">
      <root>
        <mxCell id="0" />
        <mxCell id="1" parent="0" />
        <mxCell id="Lzp36C9vLPobuwPEKqhI-1" value="Customer" style="rounded=0;whiteSpace=wrap;html=1;" vertex="1" parent="1">
          <mxGeometry x="120" y="260" width="90" height="40" as="geometry" />
        </mxCell>
        <mxCell id="Lzp36C9vLPobuwPEKqhI-2" value="id" style="ellipse;whiteSpace=wrap;html=1;" vertex="1" parent="1">
          <mxGeometry x="40" y="240" width="40" height="20" as="geometry" />
        </mxCell>
        <mxCell id="Lzp36C9vLPobuwPEKqhI-3" value="full_name" style="ellipse;whiteSpace=wrap;html=1;" vertex="1" parent="1">
          <mxGeometry x="50" y="200" width="90" height="30" as="geometry" />
        </mxCell>
        <mxCell id="Lzp36C9vLPobuwPEKqhI-4" value="username" style="ellipse;whiteSpace=wrap;html=1;" vertex="1" parent="1">
          <mxGeometry x="140" y="190" width="90" height="30" as="geometry" />
        </mxCell>
        <mxCell id="Lzp36C9vLPobuwPEKqhI-6" value="email" style="ellipse;whiteSpace=wrap;html=1;" vertex="1" parent="1">
          <mxGeometry x="240" y="190" width="90" height="30" as="geometry" />
        </mxCell>
        <mxCell id="Lzp36C9vLPobuwPEKqhI-7" value="password" style="ellipse;whiteSpace=wrap;html=1;" vertex="1" parent="1">
          <mxGeometry x="260" y="230" width="90" height="30" as="geometry" />
        </mxCell>
        <mxCell id="Lzp36C9vLPobuwPEKqhI-10" value="" style="endArrow=none;html=1;rounded=0;entryX=0.5;entryY=1;entryDx=0;entryDy=0;exitX=0;exitY=0.25;exitDx=0;exitDy=0;" edge="1" parent="1" source="Lzp36C9vLPobuwPEKqhI-1" target="Lzp36C9vLPobuwPEKqhI-2">
          <mxGeometry width="50" height="50" relative="1" as="geometry">
            <mxPoint x="160" y="310" as="sourcePoint" />
            <mxPoint x="210" y="260" as="targetPoint" />
          </mxGeometry>
        </mxCell>
        <mxCell id="Lzp36C9vLPobuwPEKqhI-11" value="" style="endArrow=none;html=1;rounded=0;entryX=0.5;entryY=1;entryDx=0;entryDy=0;exitX=0.082;exitY=0.045;exitDx=0;exitDy=0;exitPerimeter=0;" edge="1" parent="1" source="Lzp36C9vLPobuwPEKqhI-1" target="Lzp36C9vLPobuwPEKqhI-3">
          <mxGeometry width="50" height="50" relative="1" as="geometry">
            <mxPoint x="130" y="280" as="sourcePoint" />
            <mxPoint x="70" y="270" as="targetPoint" />
          </mxGeometry>
        </mxCell>
        <mxCell id="Lzp36C9vLPobuwPEKqhI-12" value="" style="endArrow=none;html=1;rounded=0;entryX=0.5;entryY=1;entryDx=0;entryDy=0;exitX=0.5;exitY=0;exitDx=0;exitDy=0;" edge="1" parent="1" source="Lzp36C9vLPobuwPEKqhI-1" target="Lzp36C9vLPobuwPEKqhI-4">
          <mxGeometry width="50" height="50" relative="1" as="geometry">
            <mxPoint x="137" y="272" as="sourcePoint" />
            <mxPoint x="105" y="240" as="targetPoint" />
          </mxGeometry>
        </mxCell>
        <mxCell id="Lzp36C9vLPobuwPEKqhI-13" value="" style="endArrow=none;html=1;rounded=0;entryX=0;entryY=1;entryDx=0;entryDy=0;exitX=1;exitY=0;exitDx=0;exitDy=0;" edge="1" parent="1" source="Lzp36C9vLPobuwPEKqhI-1" target="Lzp36C9vLPobuwPEKqhI-6">
          <mxGeometry width="50" height="50" relative="1" as="geometry">
            <mxPoint x="175" y="270" as="sourcePoint" />
            <mxPoint x="195" y="230" as="targetPoint" />
          </mxGeometry>
        </mxCell>
        <mxCell id="Lzp36C9vLPobuwPEKqhI-14" value="" style="endArrow=none;html=1;rounded=0;entryX=0.002;entryY=0.74;entryDx=0;entryDy=0;exitX=1;exitY=0.5;exitDx=0;exitDy=0;entryPerimeter=0;" edge="1" parent="1" source="Lzp36C9vLPobuwPEKqhI-1" target="Lzp36C9vLPobuwPEKqhI-7">
          <mxGeometry width="50" height="50" relative="1" as="geometry">
            <mxPoint x="220" y="270" as="sourcePoint" />
            <mxPoint x="263" y="226" as="targetPoint" />
          </mxGeometry>
        </mxCell>
        <mxCell id="Lzp36C9vLPobuwPEKqhI-15" value="place" style="rhombus;whiteSpace=wrap;html=1;" vertex="1" parent="1">
          <mxGeometry x="341" y="240" width="80" height="80" as="geometry" />
        </mxCell>
        <mxCell id="Lzp36C9vLPobuwPEKqhI-16" value="" style="endArrow=none;html=1;rounded=0;exitX=1;exitY=0.5;exitDx=0;exitDy=0;entryX=0;entryY=0.5;entryDx=0;entryDy=0;" edge="1" parent="1" source="Lzp36C9vLPobuwPEKqhI-1" target="Lzp36C9vLPobuwPEKqhI-15">
          <mxGeometry width="50" height="50" relative="1" as="geometry">
            <mxPoint x="370" y="280" as="sourcePoint" />
            <mxPoint x="420" y="230" as="targetPoint" />
          </mxGeometry>
        </mxCell>
        <mxCell id="Lzp36C9vLPobuwPEKqhI-17" value="orders" style="rounded=0;whiteSpace=wrap;html=1;" vertex="1" parent="1">
          <mxGeometry x="483" y="250" width="120" height="60" as="geometry" />
        </mxCell>
        <mxCell id="Lzp36C9vLPobuwPEKqhI-18" value="" style="endArrow=none;html=1;rounded=0;exitX=1;exitY=0.5;exitDx=0;exitDy=0;entryX=0;entryY=0.5;entryDx=0;entryDy=0;" edge="1" parent="1" source="Lzp36C9vLPobuwPEKqhI-15" target="Lzp36C9vLPobuwPEKqhI-17">
          <mxGeometry width="50" height="50" relative="1" as="geometry">
            <mxPoint x="620" y="280" as="sourcePoint" />
            <mxPoint x="670" y="230" as="targetPoint" />
          </mxGeometry>
        </mxCell>
        <mxCell id="Lzp36C9vLPobuwPEKqhI-20" value="Admin" style="rounded=0;whiteSpace=wrap;html=1;" vertex="1" parent="1">
          <mxGeometry x="103.75" y="533.77" width="120" height="60" as="geometry" />
        </mxCell>
        <mxCell id="Lzp36C9vLPobuwPEKqhI-21" value="Manages" style="rhombus;whiteSpace=wrap;html=1;rotation=0;" vertex="1" parent="1">
          <mxGeometry x="303.5" y="531" width="92.5" height="67.5" as="geometry" />
        </mxCell>
        <mxCell id="Lzp36C9vLPobuwPEKqhI-22" value="" style="endArrow=none;html=1;rounded=0;entryX=1;entryY=0.5;entryDx=0;entryDy=0;exitX=0;exitY=0.5;exitDx=0;exitDy=0;" edge="1" parent="1" source="Lzp36C9vLPobuwPEKqhI-21" target="Lzp36C9vLPobuwPEKqhI-20">
          <mxGeometry width="50" height="50" relative="1" as="geometry">
            <mxPoint x="390" y="475" as="sourcePoint" />
            <mxPoint x="440" y="425" as="targetPoint" />
          </mxGeometry>
        </mxCell>
        <mxCell id="Lzp36C9vLPobuwPEKqhI-25" value="Food" style="rounded=0;whiteSpace=wrap;html=1;" vertex="1" parent="1">
          <mxGeometry x="484" y="531" width="120" height="60" as="geometry" />
        </mxCell>
        <mxCell id="Lzp36C9vLPobuwPEKqhI-26" value="has" style="rhombus;whiteSpace=wrap;html=1;" vertex="1" parent="1">
          <mxGeometry x="503" y="362" width="80" height="80" as="geometry" />
        </mxCell>
        <mxCell id="Lzp36C9vLPobuwPEKqhI-27" value="" style="endArrow=none;html=1;rounded=0;exitX=1;exitY=0.5;exitDx=0;exitDy=0;entryX=0;entryY=0.5;entryDx=0;entryDy=0;" edge="1" parent="1" source="Lzp36C9vLPobuwPEKqhI-21" target="Lzp36C9vLPobuwPEKqhI-25">
          <mxGeometry width="50" height="50" relative="1" as="geometry">
            <mxPoint x="390" y="435" as="sourcePoint" />
            <mxPoint x="440" y="385" as="targetPoint" />
          </mxGeometry>
        </mxCell>
        <mxCell id="Lzp36C9vLPobuwPEKqhI-28" value="" style="endArrow=none;html=1;rounded=0;entryX=0.5;entryY=1;entryDx=0;entryDy=0;exitX=0.5;exitY=0;exitDx=0;exitDy=0;" edge="1" parent="1" source="Lzp36C9vLPobuwPEKqhI-26" target="Lzp36C9vLPobuwPEKqhI-17">
          <mxGeometry width="50" height="50" relative="1" as="geometry">
            <mxPoint x="390" y="350" as="sourcePoint" />
            <mxPoint x="440" y="300" as="targetPoint" />
          </mxGeometry>
        </mxCell>
        <mxCell id="Lzp36C9vLPobuwPEKqhI-29" value="" style="endArrow=none;html=1;rounded=0;entryX=0.5;entryY=0;entryDx=0;entryDy=0;exitX=0.5;exitY=1;exitDx=0;exitDy=0;" edge="1" parent="1" source="Lzp36C9vLPobuwPEKqhI-26" target="Lzp36C9vLPobuwPEKqhI-25">
          <mxGeometry width="50" height="50" relative="1" as="geometry">
            <mxPoint x="559" y="504.9999999999999" as="sourcePoint" />
            <mxPoint x="440" y="385" as="targetPoint" />
            <Array as="points" />
          </mxGeometry>
        </mxCell>
        <mxCell id="Lzp36C9vLPobuwPEKqhI-30" value="Manages" style="rhombus;whiteSpace=wrap;html=1;rotation=0;" vertex="1" parent="1">
          <mxGeometry x="117.5" y="378.25" width="92.5" height="67.5" as="geometry" />
        </mxCell>
        <mxCell id="Lzp36C9vLPobuwPEKqhI-31" value="" style="endArrow=none;html=1;rounded=0;entryX=0.5;entryY=1;entryDx=0;entryDy=0;" edge="1" parent="1" source="Lzp36C9vLPobuwPEKqhI-30" target="Lzp36C9vLPobuwPEKqhI-1">
          <mxGeometry width="50" height="50" relative="1" as="geometry">
            <mxPoint x="400" y="490" as="sourcePoint" />
            <mxPoint x="450" y="440" as="targetPoint" />
          </mxGeometry>
        </mxCell>
        <mxCell id="Lzp36C9vLPobuwPEKqhI-32" value="" style="endArrow=none;html=1;rounded=0;entryX=0.5;entryY=1;entryDx=0;entryDy=0;exitX=0.5;exitY=0;exitDx=0;exitDy=0;" edge="1" parent="1" source="Lzp36C9vLPobuwPEKqhI-20" target="Lzp36C9vLPobuwPEKqhI-30">
          <mxGeometry width="50" height="50" relative="1" as="geometry">
            <mxPoint x="400" y="490" as="sourcePoint" />
            <mxPoint x="450" y="440" as="targetPoint" />
          </mxGeometry>
        </mxCell>
        <mxCell id="Lzp36C9vLPobuwPEKqhI-33" value="Manages" style="rhombus;whiteSpace=wrap;html=1;rotation=0;" vertex="1" parent="1">
          <mxGeometry x="300" y="384" width="92.5" height="67.5" as="geometry" />
        </mxCell>
        <mxCell id="Lzp36C9vLPobuwPEKqhI-34" value="" style="endArrow=none;html=1;rounded=0;exitX=1;exitY=0;exitDx=0;exitDy=0;entryX=0;entryY=0.5;entryDx=0;entryDy=0;" edge="1" parent="1" source="Lzp36C9vLPobuwPEKqhI-20" target="Lzp36C9vLPobuwPEKqhI-33">
          <mxGeometry width="50" height="50" relative="1" as="geometry">
            <mxPoint x="400" y="470" as="sourcePoint" />
            <mxPoint x="450" y="420" as="targetPoint" />
          </mxGeometry>
        </mxCell>
        <mxCell id="Lzp36C9vLPobuwPEKqhI-35" value="" style="endArrow=none;html=1;rounded=0;entryX=0;entryY=1;entryDx=0;entryDy=0;exitX=1;exitY=0.5;exitDx=0;exitDy=0;" edge="1" parent="1" source="Lzp36C9vLPobuwPEKqhI-33" target="Lzp36C9vLPobuwPEKqhI-17">
          <mxGeometry width="50" height="50" relative="1" as="geometry">
            <mxPoint x="400" y="470" as="sourcePoint" />
            <mxPoint x="450" y="420" as="targetPoint" />
          </mxGeometry>
        </mxCell>
        <mxCell id="Lzp36C9vLPobuwPEKqhI-36" value="Has" style="rhombus;whiteSpace=wrap;html=1;" vertex="1" parent="1">
          <mxGeometry x="736" y="240" width="80" height="80" as="geometry" />
        </mxCell>
        <mxCell id="Lzp36C9vLPobuwPEKqhI-37" value="Payment" style="rounded=0;whiteSpace=wrap;html=1;" vertex="1" parent="1">
          <mxGeometry x="726" y="390" width="100" height="40" as="geometry" />
        </mxCell>
        <mxCell id="Lzp36C9vLPobuwPEKqhI-38" value="" style="endArrow=none;html=1;rounded=0;entryX=0;entryY=0.5;entryDx=0;entryDy=0;exitX=1;exitY=0.5;exitDx=0;exitDy=0;" edge="1" parent="1" source="Lzp36C9vLPobuwPEKqhI-17" target="Lzp36C9vLPobuwPEKqhI-36">
          <mxGeometry width="50" height="50" relative="1" as="geometry">
            <mxPoint x="400" y="440" as="sourcePoint" />
            <mxPoint x="450" y="390" as="targetPoint" />
          </mxGeometry>
        </mxCell>
        <mxCell id="Lzp36C9vLPobuwPEKqhI-39" value="" style="endArrow=none;html=1;rounded=0;entryX=0.5;entryY=1;entryDx=0;entryDy=0;exitX=0.5;exitY=0;exitDx=0;exitDy=0;" edge="1" parent="1" source="Lzp36C9vLPobuwPEKqhI-37" target="Lzp36C9vLPobuwPEKqhI-36">
          <mxGeometry width="50" height="50" relative="1" as="geometry">
            <mxPoint x="400" y="440" as="sourcePoint" />
            <mxPoint x="450" y="390" as="targetPoint" />
          </mxGeometry>
        </mxCell>
        <mxCell id="Lzp36C9vLPobuwPEKqhI-40" value="&lt;font style=&quot;font-size: 11px;&quot;&gt;order_id&lt;/font&gt;" style="ellipse;whiteSpace=wrap;html=1;" vertex="1" parent="1">
          <mxGeometry x="410" y="230" width="59" height="30" as="geometry" />
        </mxCell>
        <mxCell id="Lzp36C9vLPobuwPEKqhI-41" value="&lt;font style=&quot;font-size: 11px;&quot;&gt;customer_id&lt;/font&gt;" style="ellipse;whiteSpace=wrap;html=1;" vertex="1" parent="1">
          <mxGeometry x="425" y="180" width="70" height="30" as="geometry" />
        </mxCell>
        <mxCell id="Lzp36C9vLPobuwPEKqhI-42" value="&lt;font style=&quot;font-size: 11px;&quot;&gt;product_id&lt;/font&gt;" style="ellipse;whiteSpace=wrap;html=1;" vertex="1" parent="1">
          <mxGeometry x="503" y="150" width="60" height="30" as="geometry" />
        </mxCell>
        <mxCell id="Lzp36C9vLPobuwPEKqhI-43" value="&lt;font style=&quot;font-size: 11px;&quot;&gt;product_name&lt;/font&gt;" style="ellipse;whiteSpace=wrap;html=1;" vertex="1" parent="1">
          <mxGeometry x="570" y="150" width="87" height="30" as="geometry" />
        </mxCell>
        <mxCell id="Lzp36C9vLPobuwPEKqhI-44" value="&lt;font style=&quot;font-size: 11px;&quot;&gt;Quantity&lt;/font&gt;" style="ellipse;whiteSpace=wrap;html=1;" vertex="1" parent="1">
          <mxGeometry x="630" y="190" width="50" height="30" as="geometry" />
        </mxCell>
        <mxCell id="Lzp36C9vLPobuwPEKqhI-45" value="&lt;font style=&quot;font-size: 11px;&quot;&gt;status&lt;/font&gt;" style="ellipse;whiteSpace=wrap;html=1;" vertex="1" parent="1">
          <mxGeometry x="640" y="230" width="50" height="30" as="geometry" />
        </mxCell>
        <mxCell id="Lzp36C9vLPobuwPEKqhI-47" value="" style="endArrow=none;html=1;rounded=0;entryX=1;entryY=0.5;entryDx=0;entryDy=0;exitX=0;exitY=0;exitDx=0;exitDy=0;" edge="1" parent="1" source="Lzp36C9vLPobuwPEKqhI-17" target="Lzp36C9vLPobuwPEKqhI-40">
          <mxGeometry width="50" height="50" relative="1" as="geometry">
            <mxPoint x="720" y="230" as="sourcePoint" />
            <mxPoint x="770" y="180" as="targetPoint" />
          </mxGeometry>
        </mxCell>
        <mxCell id="Lzp36C9vLPobuwPEKqhI-48" value="" style="endArrow=none;html=1;rounded=0;entryX=1;entryY=1;entryDx=0;entryDy=0;exitX=0.25;exitY=0;exitDx=0;exitDy=0;" edge="1" parent="1" source="Lzp36C9vLPobuwPEKqhI-17" target="Lzp36C9vLPobuwPEKqhI-41">
          <mxGeometry width="50" height="50" relative="1" as="geometry">
            <mxPoint x="720" y="230" as="sourcePoint" />
            <mxPoint x="770" y="180" as="targetPoint" />
          </mxGeometry>
        </mxCell>
        <mxCell id="Lzp36C9vLPobuwPEKqhI-49" value="" style="endArrow=none;html=1;rounded=0;entryX=0.5;entryY=1;entryDx=0;entryDy=0;exitX=0.5;exitY=0;exitDx=0;exitDy=0;" edge="1" parent="1" source="Lzp36C9vLPobuwPEKqhI-17" target="Lzp36C9vLPobuwPEKqhI-42">
          <mxGeometry width="50" height="50" relative="1" as="geometry">
            <mxPoint x="720" y="230" as="sourcePoint" />
            <mxPoint x="770" y="180" as="targetPoint" />
          </mxGeometry>
        </mxCell>
        <mxCell id="Lzp36C9vLPobuwPEKqhI-50" value="" style="endArrow=none;html=1;rounded=0;entryX=0.5;entryY=1;entryDx=0;entryDy=0;exitX=0.5;exitY=0;exitDx=0;exitDy=0;" edge="1" parent="1" source="Lzp36C9vLPobuwPEKqhI-17" target="Lzp36C9vLPobuwPEKqhI-43">
          <mxGeometry width="50" height="50" relative="1" as="geometry">
            <mxPoint x="553" y="260" as="sourcePoint" />
            <mxPoint x="543" y="190" as="targetPoint" />
          </mxGeometry>
        </mxCell>
        <mxCell id="Lzp36C9vLPobuwPEKqhI-51" value="" style="endArrow=none;html=1;rounded=0;entryX=0;entryY=0.5;entryDx=0;entryDy=0;exitX=0.75;exitY=0;exitDx=0;exitDy=0;" edge="1" parent="1" source="Lzp36C9vLPobuwPEKqhI-17" target="Lzp36C9vLPobuwPEKqhI-44">
          <mxGeometry width="50" height="50" relative="1" as="geometry">
            <mxPoint x="553" y="260" as="sourcePoint" />
            <mxPoint x="624" y="190" as="targetPoint" />
          </mxGeometry>
        </mxCell>
        <mxCell id="Lzp36C9vLPobuwPEKqhI-52" value="" style="endArrow=none;html=1;rounded=0;entryX=0;entryY=0.5;entryDx=0;entryDy=0;exitX=1;exitY=0;exitDx=0;exitDy=0;" edge="1" parent="1" source="Lzp36C9vLPobuwPEKqhI-17" target="Lzp36C9vLPobuwPEKqhI-45">
          <mxGeometry width="50" height="50" relative="1" as="geometry">
            <mxPoint x="583" y="260" as="sourcePoint" />
            <mxPoint x="640" y="215" as="targetPoint" />
          </mxGeometry>
        </mxCell>
        <mxCell id="Lzp36C9vLPobuwPEKqhI-53" value="admin_username" style="ellipse;whiteSpace=wrap;html=1;" vertex="1" parent="1">
          <mxGeometry x="10" y="610" width="120" height="30" as="geometry" />
        </mxCell>
        <mxCell id="Lzp36C9vLPobuwPEKqhI-54" value="admin_password" style="ellipse;whiteSpace=wrap;html=1;" vertex="1" parent="1">
          <mxGeometry x="130" y="620" width="120" height="30" as="geometry" />
        </mxCell>
        <mxCell id="Lzp36C9vLPobuwPEKqhI-55" value="" style="endArrow=none;html=1;rounded=0;entryX=0.75;entryY=1;entryDx=0;entryDy=0;exitX=0.5;exitY=0;exitDx=0;exitDy=0;" edge="1" parent="1" source="Lzp36C9vLPobuwPEKqhI-54" target="Lzp36C9vLPobuwPEKqhI-20">
          <mxGeometry width="50" height="50" relative="1" as="geometry">
            <mxPoint x="180" y="640" as="sourcePoint" />
            <mxPoint x="230" y="590" as="targetPoint" />
          </mxGeometry>
        </mxCell>
        <mxCell id="Lzp36C9vLPobuwPEKqhI-56" value="" style="endArrow=none;html=1;rounded=0;entryX=0;entryY=1;entryDx=0;entryDy=0;exitX=0.5;exitY=0;exitDx=0;exitDy=0;" edge="1" parent="1" source="Lzp36C9vLPobuwPEKqhI-53" target="Lzp36C9vLPobuwPEKqhI-20">
          <mxGeometry width="50" height="50" relative="1" as="geometry">
            <mxPoint x="200" y="630" as="sourcePoint" />
            <mxPoint x="204" y="604" as="targetPoint" />
          </mxGeometry>
        </mxCell>
        <mxCell id="Lzp36C9vLPobuwPEKqhI-57" value="id" style="ellipse;whiteSpace=wrap;html=1;" vertex="1" parent="1">
          <mxGeometry x="410" y="580" width="47" height="30" as="geometry" />
        </mxCell>
        <mxCell id="Lzp36C9vLPobuwPEKqhI-58" value="name" style="ellipse;whiteSpace=wrap;html=1;" vertex="1" parent="1">
          <mxGeometry x="410" y="620" width="47" height="30" as="geometry" />
        </mxCell>
        <mxCell id="Lzp36C9vLPobuwPEKqhI-59" value="image" style="ellipse;whiteSpace=wrap;html=1;" vertex="1" parent="1">
          <mxGeometry x="457" y="640" width="47" height="30" as="geometry" />
        </mxCell>
        <mxCell id="Lzp36C9vLPobuwPEKqhI-60" value="price" style="ellipse;whiteSpace=wrap;html=1;" vertex="1" parent="1">
          <mxGeometry x="484" y="680" width="46" height="30" as="geometry" />
        </mxCell>
        <mxCell id="Lzp36C9vLPobuwPEKqhI-61" value="weight" style="ellipse;whiteSpace=wrap;html=1;" vertex="1" parent="1">
          <mxGeometry x="523" y="640" width="57" height="40" as="geometry" />
        </mxCell>
        <mxCell id="Lzp36C9vLPobuwPEKqhI-62" value="Quantity" style="ellipse;whiteSpace=wrap;html=1;" vertex="1" parent="1">
          <mxGeometry x="583" y="670" width="50" height="30" as="geometry" />
        </mxCell>
        <mxCell id="Lzp36C9vLPobuwPEKqhI-63" value="Details" style="ellipse;whiteSpace=wrap;html=1;" vertex="1" parent="1">
          <mxGeometry x="620" y="620" width="50" height="30" as="geometry" />
        </mxCell>
        <mxCell id="Lzp36C9vLPobuwPEKqhI-64" value="Ingredints" style="ellipse;whiteSpace=wrap;html=1;" vertex="1" parent="1">
          <mxGeometry x="630" y="580" width="70" height="30" as="geometry" />
        </mxCell>
        <mxCell id="Lzp36C9vLPobuwPEKqhI-65" value="shipping" style="ellipse;whiteSpace=wrap;html=1;" vertex="1" parent="1">
          <mxGeometry x="620" y="546" width="70" height="30" as="geometry" />
        </mxCell>
        <mxCell id="Lzp36C9vLPobuwPEKqhI-66" value="" style="endArrow=none;html=1;rounded=0;exitX=1;exitY=0.5;exitDx=0;exitDy=0;entryX=0;entryY=0.75;entryDx=0;entryDy=0;" edge="1" parent="1" source="Lzp36C9vLPobuwPEKqhI-57" target="Lzp36C9vLPobuwPEKqhI-25">
          <mxGeometry width="50" height="50" relative="1" as="geometry">
            <mxPoint x="540" y="650" as="sourcePoint" />
            <mxPoint x="590" y="600" as="targetPoint" />
          </mxGeometry>
        </mxCell>
        <mxCell id="Lzp36C9vLPobuwPEKqhI-67" value="" style="endArrow=none;html=1;rounded=0;exitX=1;exitY=0.5;exitDx=0;exitDy=0;entryX=0.154;entryY=0.986;entryDx=0;entryDy=0;entryPerimeter=0;" edge="1" parent="1" source="Lzp36C9vLPobuwPEKqhI-58" target="Lzp36C9vLPobuwPEKqhI-25">
          <mxGeometry width="50" height="50" relative="1" as="geometry">
            <mxPoint x="467" y="605" as="sourcePoint" />
            <mxPoint x="494" y="586" as="targetPoint" />
          </mxGeometry>
        </mxCell>
        <mxCell id="Lzp36C9vLPobuwPEKqhI-68" value="" style="endArrow=none;html=1;rounded=0;exitX=1;exitY=0;exitDx=0;exitDy=0;entryX=0.322;entryY=1;entryDx=0;entryDy=0;entryPerimeter=0;" edge="1" parent="1" source="Lzp36C9vLPobuwPEKqhI-59" target="Lzp36C9vLPobuwPEKqhI-25">
          <mxGeometry width="50" height="50" relative="1" as="geometry">
            <mxPoint x="467" y="645" as="sourcePoint" />
            <mxPoint x="512" y="600" as="targetPoint" />
          </mxGeometry>
        </mxCell>
        <mxCell id="Lzp36C9vLPobuwPEKqhI-69" value="" style="endArrow=none;html=1;rounded=0;exitX=0.5;exitY=0;exitDx=0;exitDy=0;entryX=0.5;entryY=1;entryDx=0;entryDy=0;" edge="1" parent="1" source="Lzp36C9vLPobuwPEKqhI-60" target="Lzp36C9vLPobuwPEKqhI-25">
          <mxGeometry width="50" height="50" relative="1" as="geometry">
            <mxPoint x="507" y="654" as="sourcePoint" />
            <mxPoint x="533" y="601" as="targetPoint" />
          </mxGeometry>
        </mxCell>
        <mxCell id="Lzp36C9vLPobuwPEKqhI-70" value="" style="endArrow=none;html=1;rounded=0;exitX=0.5;exitY=0;exitDx=0;exitDy=0;entryX=0.5;entryY=1;entryDx=0;entryDy=0;" edge="1" parent="1" source="Lzp36C9vLPobuwPEKqhI-61" target="Lzp36C9vLPobuwPEKqhI-25">
          <mxGeometry width="50" height="50" relative="1" as="geometry">
            <mxPoint x="517" y="690" as="sourcePoint" />
            <mxPoint x="540" y="600" as="targetPoint" />
          </mxGeometry>
        </mxCell>
        <mxCell id="Lzp36C9vLPobuwPEKqhI-71" value="" style="endArrow=none;html=1;rounded=0;exitX=0.5;exitY=0;exitDx=0;exitDy=0;entryX=0.5;entryY=1;entryDx=0;entryDy=0;" edge="1" parent="1" source="Lzp36C9vLPobuwPEKqhI-62" target="Lzp36C9vLPobuwPEKqhI-25">
          <mxGeometry width="50" height="50" relative="1" as="geometry">
            <mxPoint x="562" y="650" as="sourcePoint" />
            <mxPoint x="554" y="601" as="targetPoint" />
          </mxGeometry>
        </mxCell>
        <mxCell id="Lzp36C9vLPobuwPEKqhI-72" value="" style="endArrow=none;html=1;rounded=0;exitX=0;exitY=0.5;exitDx=0;exitDy=0;entryX=0.75;entryY=1;entryDx=0;entryDy=0;" edge="1" parent="1" source="Lzp36C9vLPobuwPEKqhI-63" target="Lzp36C9vLPobuwPEKqhI-25">
          <mxGeometry width="50" height="50" relative="1" as="geometry">
            <mxPoint x="618" y="680" as="sourcePoint" />
            <mxPoint x="554" y="601" as="targetPoint" />
          </mxGeometry>
        </mxCell>
        <mxCell id="Lzp36C9vLPobuwPEKqhI-73" value="" style="endArrow=none;html=1;rounded=0;exitX=0;exitY=0.5;exitDx=0;exitDy=0;entryX=1;entryY=1;entryDx=0;entryDy=0;" edge="1" parent="1" source="Lzp36C9vLPobuwPEKqhI-64" target="Lzp36C9vLPobuwPEKqhI-25">
          <mxGeometry width="50" height="50" relative="1" as="geometry">
            <mxPoint x="630" y="645" as="sourcePoint" />
            <mxPoint x="584" y="601" as="targetPoint" />
          </mxGeometry>
        </mxCell>
        <mxCell id="Lzp36C9vLPobuwPEKqhI-74" value="" style="endArrow=none;html=1;rounded=0;exitX=0;exitY=0.5;exitDx=0;exitDy=0;entryX=1;entryY=0.5;entryDx=0;entryDy=0;" edge="1" parent="1" source="Lzp36C9vLPobuwPEKqhI-65" target="Lzp36C9vLPobuwPEKqhI-25">
          <mxGeometry width="50" height="50" relative="1" as="geometry">
            <mxPoint x="640" y="605" as="sourcePoint" />
            <mxPoint x="614" y="601" as="targetPoint" />
          </mxGeometry>
        </mxCell>
        <mxCell id="Lzp36C9vLPobuwPEKqhI-75" value="Amount" style="ellipse;whiteSpace=wrap;html=1;" vertex="1" parent="1">
          <mxGeometry x="625" y="384" width="60" height="30" as="geometry" />
        </mxCell>
        <mxCell id="Lzp36C9vLPobuwPEKqhI-76" value="Payment_method" style="ellipse;whiteSpace=wrap;html=1;" vertex="1" parent="1">
          <mxGeometry x="610" y="442" width="126" height="38" as="geometry" />
        </mxCell>
        <mxCell id="Lzp36C9vLPobuwPEKqhI-77" value="Description" style="ellipse;whiteSpace=wrap;html=1;" vertex="1" parent="1">
          <mxGeometry x="724" y="468" width="126" height="38" as="geometry" />
        </mxCell>
        <mxCell id="Lzp36C9vLPobuwPEKqhI-78" value="Customer" style="ellipse;whiteSpace=wrap;html=1;" vertex="1" parent="1">
          <mxGeometry x="840" y="442" width="126" height="38" as="geometry" />
        </mxCell>
        <mxCell id="Lzp36C9vLPobuwPEKqhI-79" value="Date" style="ellipse;whiteSpace=wrap;html=1;" vertex="1" parent="1">
          <mxGeometry x="890" y="384" width="126" height="38" as="geometry" />
        </mxCell>
        <mxCell id="Lzp36C9vLPobuwPEKqhI-80" value="" style="endArrow=none;html=1;rounded=0;exitX=1;exitY=0.5;exitDx=0;exitDy=0;entryX=0;entryY=0.5;entryDx=0;entryDy=0;" edge="1" parent="1" source="Lzp36C9vLPobuwPEKqhI-75" target="Lzp36C9vLPobuwPEKqhI-37">
          <mxGeometry width="50" height="50" relative="1" as="geometry">
            <mxPoint x="720" y="450" as="sourcePoint" />
            <mxPoint x="770" y="400" as="targetPoint" />
          </mxGeometry>
        </mxCell>
        <mxCell id="Lzp36C9vLPobuwPEKqhI-81" value="" style="endArrow=none;html=1;rounded=0;exitX=0.5;exitY=0;exitDx=0;exitDy=0;entryX=0;entryY=1;entryDx=0;entryDy=0;" edge="1" parent="1" source="Lzp36C9vLPobuwPEKqhI-76" target="Lzp36C9vLPobuwPEKqhI-37">
          <mxGeometry width="50" height="50" relative="1" as="geometry">
            <mxPoint x="695" y="409" as="sourcePoint" />
            <mxPoint x="736" y="420" as="targetPoint" />
          </mxGeometry>
        </mxCell>
        <mxCell id="Lzp36C9vLPobuwPEKqhI-82" value="" style="endArrow=none;html=1;rounded=0;exitX=0.5;exitY=0;exitDx=0;exitDy=0;entryX=0.5;entryY=1;entryDx=0;entryDy=0;" edge="1" parent="1" source="Lzp36C9vLPobuwPEKqhI-77" target="Lzp36C9vLPobuwPEKqhI-37">
          <mxGeometry width="50" height="50" relative="1" as="geometry">
            <mxPoint x="683" y="452" as="sourcePoint" />
            <mxPoint x="736" y="440" as="targetPoint" />
          </mxGeometry>
        </mxCell>
        <mxCell id="Lzp36C9vLPobuwPEKqhI-83" value="" style="endArrow=none;html=1;rounded=0;exitX=0;exitY=0.5;exitDx=0;exitDy=0;entryX=0.75;entryY=1;entryDx=0;entryDy=0;" edge="1" parent="1" source="Lzp36C9vLPobuwPEKqhI-78" target="Lzp36C9vLPobuwPEKqhI-37">
          <mxGeometry width="50" height="50" relative="1" as="geometry">
            <mxPoint x="797" y="478" as="sourcePoint" />
            <mxPoint x="786" y="440" as="targetPoint" />
          </mxGeometry>
        </mxCell>
        <mxCell id="Lzp36C9vLPobuwPEKqhI-84" value="" style="endArrow=none;html=1;rounded=0;exitX=0;exitY=0.5;exitDx=0;exitDy=0;entryX=1;entryY=0.5;entryDx=0;entryDy=0;" edge="1" parent="1" source="Lzp36C9vLPobuwPEKqhI-79" target="Lzp36C9vLPobuwPEKqhI-37">
          <mxGeometry width="50" height="50" relative="1" as="geometry">
            <mxPoint x="851" y="465" as="sourcePoint" />
            <mxPoint x="811" y="440" as="targetPoint" />
          </mxGeometry>
        </mxCell>
      </root>
    </mxGraphModel>
  </diagram>
</mxfile>
